# xmcd CD database file
#
# Track frame offsets:
#	150
#	12705
#	24327
#	39127
#	50905
#	63450
#	75801
#	89782
#	102785
#	116816
#	130062
#	144231
#	156969
#	171558
#	185213
#	199441
#	212196
#	225268
#	235245
#	245502
#
# Disc length: 3428 seconds
#
# Revision: 0
# Processed by: cddbd v1.4PL0 Copyright (c) Steve Scherf et al.
# Submitted via: CDex 1.51
#
DISCID=1c0d6214
DTITLE=Muddy Waters - Streamlined Woman
DYEAR=2001
DGENRE=Blues
TTITLE0=Train Fare Home
TTITLE1=Sittin' Here Drinkin'
TTITLE2=Streamlined Woman
TTITLE3=Kind-Hearted Woman
TTITLE4=Little Geneva
TTITLE5=Canary Bird
TTITLE6=Screaming And Crying
TTITLE7=Down South Blues
TTITLE8=Rollin' Stone
TTITLE9=Walkin' Blues
TTITLE10=You're Gonna Need My Help
TTITLE11=Rollin' And Tumblin' Part One
TTITLE12=Rollin' And Tumblin' Part Two
TTITLE13=Sad Letter Blues
TTITLE14=Early Morning Blues
TTITLE15=Appealing Blues
TTITLE16=Louisiana Blues
TTITLE17=Evan's Shuffle
TTITLE18=Mean Red Spider
TTITLE19=You're Gonna Miss Me
EXTD=YEAR: 2001
EXTT0=
EXTT1=
EXTT2=
EXTT3=
EXTT4=
EXTT5=
EXTT6=
EXTT7=
EXTT8=
EXTT9=
EXTT10=
EXTT11=
EXTT12=
EXTT13=
EXTT14=
EXTT15=
EXTT16=
EXTT17=
EXTT18=
EXTT19=
PLAYORDER=
